<svg width="13" height="13" viewBox="0 0 13 13" fill="none" xmlns="http://www.w3.org/2000/svg">
<g filter="url(#filter0_d_17_81)">
<rect x="1.5" y="1.5" width="1.5" height="1.5" fill="white"/>
<rect width="1.5" height="1.5" fill="white"/>
<rect x="3" y="3" width="1.5" height="1.5" fill="white"/>
<rect x="4.5" y="4.5" width="1.5" height="1.5" fill="white"/>
<rect x="6" y="6" width="1.5" height="1.5" fill="white"/>
<rect x="7.5" y="7.5" width="1.5" height="1.5" fill="white"/>
<rect x="9" y="9" width="1.5" height="1.5" fill="white"/>
<rect x="10.5" y="10.5" width="1.5" height="1.5" fill="white"/>
<rect x="6" y="4.5" width="1.5" height="1.5" fill="white"/>
<rect x="7.5" y="3" width="1.5" height="1.5" fill="white"/>
<rect x="9" y="1.5" width="1.5" height="1.5" fill="white"/>
<rect x="10.5" width="1.5" height="1.5" fill="white"/>
<rect x="4.5" y="6" width="1.5" height="1.5" fill="white"/>
<rect x="3" y="7.5" width="1.5" height="1.5" fill="white"/>
<rect x="1.5" y="9" width="1.5" height="1.5" fill="white"/>
<rect y="10.5" width="1.5" height="1.5" fill="white"/>
</g>
<defs>
<filter id="filter0_d_17_81" x="0" y="0" width="13" height="13" filterUnits="userSpaceOnUse" color-interpolation-filters="sRGB">
<feFlood flood-opacity="0" result="BackgroundImageFix"/>
<feColorMatrix in="SourceAlpha" type="matrix" values="0 0 0 0 0 0 0 0 0 0 0 0 0 0 0 0 0 0 127 0" result="hardAlpha"/>
<feOffset dx="1" dy="1"/>
<feComposite in2="hardAlpha" operator="out"/>
<feColorMatrix type="matrix" values="0 0 0 0 0 0 0 0 0 0 0 0 0 0 0 0 0 0 0.35 0"/>
<feBlend mode="normal" in2="BackgroundImageFix" result="effect1_dropShadow_17_81"/>
<feBlend mode="normal" in="SourceGraphic" in2="effect1_dropShadow_17_81" result="shape"/>
</filter>
</defs>
</svg>
